<mxfile host="app.diagrams.net" agent="Mozilla/5.0 (Windows NT 10.0; Win64; x64) AppleWebKit/537.36 (KHTML, like Gecko) Chrome/139.0.0.0 Safari/537.36 Edg/139.0.0.0" version="28.1.1">
  <diagram name="Sida-1" id="AW1izTDlbWbokOlA4s77">
    <mxGraphModel dx="2600" dy="2179" grid="1" gridSize="10" guides="1" tooltips="1" connect="1" arrows="1" fold="1" page="1" pageScale="1" pageWidth="827" pageHeight="1169" math="0" shadow="0">
      <root>
        <mxCell id="0" />
        <mxCell id="1" parent="0" />
        <mxCell id="Wb3VpCRKg6N2nYVyIfHQ-8" style="edgeStyle=none;curved=1;rounded=0;orthogonalLoop=1;jettySize=auto;html=1;exitX=0.5;exitY=1;exitDx=0;exitDy=0;entryX=0.5;entryY=0;entryDx=0;entryDy=0;fontSize=12;startSize=8;endSize=8;" edge="1" parent="1" source="Wb3VpCRKg6N2nYVyIfHQ-1" target="Wb3VpCRKg6N2nYVyIfHQ-3">
          <mxGeometry relative="1" as="geometry" />
        </mxCell>
        <mxCell id="Wb3VpCRKg6N2nYVyIfHQ-9" style="edgeStyle=none;curved=1;rounded=0;orthogonalLoop=1;jettySize=auto;html=1;exitX=0;exitY=1;exitDx=0;exitDy=0;entryX=0.5;entryY=0;entryDx=0;entryDy=0;fontSize=12;startSize=8;endSize=8;" edge="1" parent="1" source="Wb3VpCRKg6N2nYVyIfHQ-1" target="Wb3VpCRKg6N2nYVyIfHQ-2">
          <mxGeometry relative="1" as="geometry" />
        </mxCell>
        <mxCell id="Wb3VpCRKg6N2nYVyIfHQ-10" style="edgeStyle=none;curved=1;rounded=0;orthogonalLoop=1;jettySize=auto;html=1;exitX=0.75;exitY=1;exitDx=0;exitDy=0;entryX=0;entryY=0.5;entryDx=0;entryDy=0;fontSize=12;startSize=8;endSize=8;" edge="1" parent="1" source="Wb3VpCRKg6N2nYVyIfHQ-1" target="Wb3VpCRKg6N2nYVyIfHQ-4">
          <mxGeometry relative="1" as="geometry" />
        </mxCell>
        <mxCell id="Wb3VpCRKg6N2nYVyIfHQ-25" style="edgeStyle=none;curved=1;rounded=0;orthogonalLoop=1;jettySize=auto;html=1;exitX=0;exitY=0.5;exitDx=0;exitDy=0;entryX=0.5;entryY=0;entryDx=0;entryDy=0;fontSize=12;startSize=8;endSize=8;" edge="1" parent="1" source="Wb3VpCRKg6N2nYVyIfHQ-1" target="Wb3VpCRKg6N2nYVyIfHQ-24">
          <mxGeometry relative="1" as="geometry" />
        </mxCell>
        <mxCell id="Wb3VpCRKg6N2nYVyIfHQ-30" style="edgeStyle=none;curved=1;rounded=0;orthogonalLoop=1;jettySize=auto;html=1;exitX=0;exitY=0.5;exitDx=0;exitDy=0;entryX=0.5;entryY=0;entryDx=0;entryDy=0;fontSize=12;startSize=8;endSize=8;" edge="1" parent="1" source="Wb3VpCRKg6N2nYVyIfHQ-1" target="Wb3VpCRKg6N2nYVyIfHQ-27">
          <mxGeometry relative="1" as="geometry" />
        </mxCell>
        <mxCell id="Wb3VpCRKg6N2nYVyIfHQ-31" style="edgeStyle=none;curved=1;rounded=0;orthogonalLoop=1;jettySize=auto;html=1;exitX=0;exitY=0.75;exitDx=0;exitDy=0;entryX=0.5;entryY=0;entryDx=0;entryDy=0;fontSize=12;startSize=8;endSize=8;" edge="1" parent="1" source="Wb3VpCRKg6N2nYVyIfHQ-1" target="Wb3VpCRKg6N2nYVyIfHQ-28">
          <mxGeometry relative="1" as="geometry" />
        </mxCell>
        <mxCell id="Wb3VpCRKg6N2nYVyIfHQ-1" value="App" style="rounded=1;whiteSpace=wrap;html=1;" vertex="1" parent="1">
          <mxGeometry x="440" y="-190" width="120" height="60" as="geometry" />
        </mxCell>
        <mxCell id="Wb3VpCRKg6N2nYVyIfHQ-2" value="MCPDriver" style="rounded=1;whiteSpace=wrap;html=1;" vertex="1" parent="1">
          <mxGeometry x="230" y="240" width="120" height="60" as="geometry" />
        </mxCell>
        <mxCell id="Wb3VpCRKg6N2nYVyIfHQ-18" style="edgeStyle=none;curved=1;rounded=0;orthogonalLoop=1;jettySize=auto;html=1;exitX=0.75;exitY=1;exitDx=0;exitDy=0;fontSize=12;startSize=8;endSize=8;entryX=0.442;entryY=0.033;entryDx=0;entryDy=0;entryPerimeter=0;" edge="1" parent="1" source="Wb3VpCRKg6N2nYVyIfHQ-3" target="Wb3VpCRKg6N2nYVyIfHQ-16">
          <mxGeometry relative="1" as="geometry" />
        </mxCell>
        <mxCell id="Wb3VpCRKg6N2nYVyIfHQ-20" style="edgeStyle=none;curved=1;rounded=0;orthogonalLoop=1;jettySize=auto;html=1;exitX=0.25;exitY=1;exitDx=0;exitDy=0;entryX=0.5;entryY=0;entryDx=0;entryDy=0;fontSize=12;startSize=8;endSize=8;" edge="1" parent="1" source="Wb3VpCRKg6N2nYVyIfHQ-3" target="Wb3VpCRKg6N2nYVyIfHQ-6">
          <mxGeometry relative="1" as="geometry" />
        </mxCell>
        <mxCell id="Wb3VpCRKg6N2nYVyIfHQ-3" value="LineManager" style="rounded=1;whiteSpace=wrap;html=1;" vertex="1" parent="1">
          <mxGeometry x="480" y="240" width="120" height="60" as="geometry" />
        </mxCell>
        <mxCell id="Wb3VpCRKg6N2nYVyIfHQ-12" style="edgeStyle=none;curved=1;rounded=0;orthogonalLoop=1;jettySize=auto;html=1;exitX=0.25;exitY=1;exitDx=0;exitDy=0;fontSize=12;startSize=8;endSize=8;entryX=0.5;entryY=0;entryDx=0;entryDy=0;" edge="1" parent="1" source="Wb3VpCRKg6N2nYVyIfHQ-4" target="Wb3VpCRKg6N2nYVyIfHQ-5">
          <mxGeometry relative="1" as="geometry" />
        </mxCell>
        <mxCell id="Wb3VpCRKg6N2nYVyIfHQ-15" style="edgeStyle=none;curved=1;rounded=0;orthogonalLoop=1;jettySize=auto;html=1;exitX=0.75;exitY=1;exitDx=0;exitDy=0;entryX=0.5;entryY=0;entryDx=0;entryDy=0;fontSize=12;startSize=8;endSize=8;" edge="1" parent="1" source="Wb3VpCRKg6N2nYVyIfHQ-4" target="Wb3VpCRKg6N2nYVyIfHQ-14">
          <mxGeometry relative="1" as="geometry" />
        </mxCell>
        <mxCell id="Wb3VpCRKg6N2nYVyIfHQ-17" style="edgeStyle=none;curved=1;rounded=0;orthogonalLoop=1;jettySize=auto;html=1;exitX=0.5;exitY=1;exitDx=0;exitDy=0;entryX=0.5;entryY=0;entryDx=0;entryDy=0;fontSize=12;startSize=8;endSize=8;" edge="1" parent="1" source="Wb3VpCRKg6N2nYVyIfHQ-4" target="Wb3VpCRKg6N2nYVyIfHQ-7">
          <mxGeometry relative="1" as="geometry" />
        </mxCell>
        <mxCell id="Wb3VpCRKg6N2nYVyIfHQ-4" value="LineAction" style="rounded=1;whiteSpace=wrap;html=1;" vertex="1" parent="1">
          <mxGeometry x="880" y="180" width="120" height="60" as="geometry" />
        </mxCell>
        <mxCell id="Wb3VpCRKg6N2nYVyIfHQ-5" value="ToneGenerator" style="rounded=1;whiteSpace=wrap;html=1;" vertex="1" parent="1">
          <mxGeometry x="730" y="350" width="120" height="60" as="geometry" />
        </mxCell>
        <mxCell id="Wb3VpCRKg6N2nYVyIfHQ-6" value="Debouncer" style="rounded=1;whiteSpace=wrap;html=1;" vertex="1" parent="1">
          <mxGeometry x="400" y="350" width="120" height="60" as="geometry" />
        </mxCell>
        <mxCell id="Wb3VpCRKg6N2nYVyIfHQ-7" value="PulsHandler" style="rounded=1;whiteSpace=wrap;html=1;" vertex="1" parent="1">
          <mxGeometry x="880" y="350" width="120" height="60" as="geometry" />
        </mxCell>
        <mxCell id="Wb3VpCRKg6N2nYVyIfHQ-14" value="RingHandler" style="rounded=1;whiteSpace=wrap;html=1;" vertex="1" parent="1">
          <mxGeometry x="1030" y="350" width="120" height="60" as="geometry" />
        </mxCell>
        <mxCell id="Wb3VpCRKg6N2nYVyIfHQ-16" value="LineHandler" style="rounded=1;whiteSpace=wrap;html=1;" vertex="1" parent="1">
          <mxGeometry x="560" y="350" width="120" height="60" as="geometry" />
        </mxCell>
        <mxCell id="Wb3VpCRKg6N2nYVyIfHQ-24" value="MT8870Driver" style="rounded=1;whiteSpace=wrap;html=1;" vertex="1" parent="1">
          <mxGeometry x="80" y="240" width="120" height="60" as="geometry" />
        </mxCell>
        <mxCell id="Wb3VpCRKg6N2nYVyIfHQ-27" value="WifiClient" style="rounded=1;whiteSpace=wrap;html=1;" vertex="1" parent="1">
          <mxGeometry x="-90" y="240" width="120" height="60" as="geometry" />
        </mxCell>
        <mxCell id="Wb3VpCRKg6N2nYVyIfHQ-28" value="MqttClient" style="rounded=1;whiteSpace=wrap;html=1;" vertex="1" parent="1">
          <mxGeometry x="-250" y="240" width="120" height="60" as="geometry" />
        </mxCell>
        <mxCell id="Wb3VpCRKg6N2nYVyIfHQ-29" value="WebserverClient" style="rounded=1;whiteSpace=wrap;html=1;" vertex="1" parent="1">
          <mxGeometry x="-413" y="240" width="120" height="60" as="geometry" />
        </mxCell>
        <mxCell id="Wb3VpCRKg6N2nYVyIfHQ-32" style="edgeStyle=none;curved=1;rounded=0;orthogonalLoop=1;jettySize=auto;html=1;exitX=0;exitY=0.25;exitDx=0;exitDy=0;entryX=0.45;entryY=0.05;entryDx=0;entryDy=0;entryPerimeter=0;fontSize=12;startSize=8;endSize=8;" edge="1" parent="1" source="Wb3VpCRKg6N2nYVyIfHQ-1" target="Wb3VpCRKg6N2nYVyIfHQ-29">
          <mxGeometry relative="1" as="geometry" />
        </mxCell>
      </root>
    </mxGraphModel>
  </diagram>
</mxfile>
